<?xml version="1.0" standalone="no"?><!DOCTYPE svg PUBLIC "-//W3C//DTD SVG 1.1//EN" "http://www.w3.org/Graphics/SVG/1.1/DTD/svg11.dtd"><svg t="1555296478923" class="icon" style="" viewBox="0 0 1024 1024" version="1.1" xmlns="http://www.w3.org/2000/svg" p-id="2968" xmlns:xlink="http://www.w3.org/1999/xlink" width="200" height="200"><defs><style type="text/css"></style></defs><path d="M664.664 483.118c68.435-48.033 113.392-127.575 113.392-217.464C778.056 119.236 658.949 0 512.344 0 365.894 0 246.63 119.08 246.63 265.654c0 89.89 44.8 169.43 113.392 217.464C296.685 505.514 238.6 541.964 189.63 590.77 103.426 676.953 56 791.554 56 913.414c0 28.264 0 50.042 0.155 73.672C56.31 1007.473 72.84 1024 93.231 1024c20.702-0.155 37.078-16.836 37.078-37.223-0.156-23.476-0.156-45.1-0.156-73.209 0-210.669 171.478-382.262 382.347-382.262 75.5-7.806 98-14.806 152.164-48.188z m-343.88-217.466c0-105.643 85.893-191.518 191.56-191.518 105.668 0 191.562 85.874 191.562 191.518s-85.894 191.52-191.561 191.52c-105.668 0-191.561-86.03-191.561-191.52z" p-id="2969"></path><path d="M963.969 682L968 692l-48.378 58c-8.063 10-8.063 26 0 36L968 842l-4.031 10c-10.08 28-24.19 56-44.347 78l-8.063 8-74.583-12c-12.094-2-26.204 6-30.236 18l-26.205 72-10.078 2c-38.3 8-76.599 8-114.898 0l-12.094-2-24.19-70c-4.03-12-18.141-20-30.236-18l-76.598 12-8.063-8c-10.079-10-18.142-22-24.189-34-8.063-14-16.126-30-20.158-46L456 842l50.394-56c8.063-10 8.063-26 0-34l-48.378-58 4.031-10c10.079-30 26.205-56 46.362-80l8.063-8 72.567 12c12.095 2 26.205-6 32.252-18l26.205-70 10.079-2c36.283-8 74.582-8 112.882 0l12.094 2 24.19 68c4.03 12 18.14 22 32.251 20l74.583-10 8.063 8c10.079 12 18.142 22 24.189 36 6.047 10 12.094 26 18.142 40z m-81.346-0.79c-3.536-6.872-7.072-12.026-12.377-18.899l-45.97 5.155c-28.29 3.436-56.58-13.745-65.42-39.517l-14.146-39.516c-21.217-3.436-42.435-3.436-63.652 0l-15.913 41.234c-8.84 25.772-38.899 42.953-67.188 37.799l-44.203-6.873c-10.61 12.027-17.682 27.49-24.754 41.235l30.058 34.362c17.681 20.617 17.681 53.261 0 73.879L529 844.43c3.536 8.59 7.072 15.463 12.377 24.053 3.536 6.873 7.072 12.027 12.377 17.181l47.739-6.872c28.29-3.436 56.58 13.745 65.42 39.516l14.145 41.235c21.217 3.436 44.203 3.436 65.42 0l15.913-42.953c8.84-25.772 38.899-42.953 65.42-37.798l44.203 6.872c8.841-12.027 17.682-25.771 22.986-41.234l-28.29-32.644c-17.681-20.618-19.45-53.262-1.768-73.879L895 703.546c-3.536-6.872-7.072-13.745-12.377-22.335zM712 840.36c-40.556 0-73-32.382-73-72.858 0-40.477 32.444-72.858 73-72.858s73 32.325 73 72.802c0 40.476-34.067 72.914-73 72.914z" p-id="2970"></path></svg>