<?xml version="1.0" standalone="no"?><!DOCTYPE svg PUBLIC "-//W3C//DTD SVG 1.1//EN" "http://www.w3.org/Graphics/SVG/1.1/DTD/svg11.dtd"><svg t="1555387699094" class="icon" style="" viewBox="0 0 1024 1024" version="1.1" xmlns="http://www.w3.org/2000/svg" p-id="5221" xmlns:xlink="http://www.w3.org/1999/xlink" width="200" height="200"><defs><style type="text/css"></style></defs><path d="M867.84 747.52c0 14.08-11.52 25.6-25.6 25.6H179.2c-14.08 0-25.6-11.52-25.6-25.6V343.04c0-14.08 11.52-25.6 25.6-25.6h663.04c14.08 0 25.6 11.52 25.6 25.6v404.48z" fill="#939393" p-id="5222"></path><path d="M867.84 739.84c0 14.08-11.52 25.6-25.6 25.6H179.2c-14.08 0-25.6-11.52-25.6-25.6V335.36c0-14.08 11.52-25.6 25.6-25.6h663.04c14.08 0 25.6 11.52 25.6 25.6v404.48z" fill="#DBDBDB" p-id="5223"></path><path d="M350.72 509.7472c0 16.79872-13.61664 30.4128-30.4128 30.4128h-62.0544C241.45664 540.16 227.84 526.54592 227.84 509.7472v-0.6144c0-16.79616 13.61664-30.4128 30.4128-30.4128h62.05184c16.79872 0 30.4128 13.61664 30.4128 30.4128v0.6144z" fill="#E54405" p-id="5224"></path><path d="M288.47104 444.0064m-75.99104 0a75.99104 75.99104 0 1 0 151.98208 0 75.99104 75.99104 0 1 0-151.98208 0Z" fill="#F2B60F" p-id="5225"></path><path d="M289.11104 443.36384m-63.83104 0a63.83104 63.83104 0 1 0 127.66208 0 63.83104 63.83104 0 1 0-127.66208 0Z" fill="#F74608" p-id="5226"></path><path d="M293.76768 402.34752l-4.8-2.51904-4.79744 2.5216 0.91392-5.34016-3.88352-3.78368 5.3632-0.7808 2.39872-4.864 2.40128 4.85888 5.3632 0.77824-3.8784 3.78624zM260.46208 409.55136l-3.81184-2.00192-3.80928 2.00448 0.72448-4.24192-3.0848-3.008 4.25984-0.61696 1.90464-3.8656 1.90976 3.86048 4.25984 0.61696-3.08224 3.008zM327.02208 409.55136l-3.81184-2.00192-3.80928 2.00448 0.72448-4.24192-3.0848-3.008 4.25984-0.61696 1.90464-3.8656 1.90976 3.86048 4.25984 0.61696-3.08224 3.008zM306.54208 424.91136l-3.81184-2.00192-3.80928 2.00448 0.72448-4.24192-3.0848-3.008 4.25984-0.61696 1.90464-3.8656 1.90976 3.86048 4.25984 0.61696-3.08224 3.008zM278.38208 424.91136l-3.81184-2.00192-3.80928 2.00448 0.72448-4.24192-3.0848-3.008 4.25984-0.61696 1.90464-3.8656 1.90976 3.86048 4.25984 0.61696-3.08224 3.008z" fill="#F7BC16" p-id="5227"></path><path d="M238.08 481.28h102.4l-3.41248-12.8H243.2" fill="#EA9F07" p-id="5228"></path><path d="M256.84736 468.05248l5.96736-14.93248H317.44l5.76768 15.36z" fill="#EFBB14" p-id="5229"></path><path d="M445.80608 382.8096h17.32608v-9.80992h3.87072v9.80992h17.50528v20.52096h-3.68896v-2.42944h-13.81376v16.73984h-3.87072v-16.73984h-13.63456v2.42944h-3.68896v-20.52096z m3.68896 14.7584h13.63456v-11.4304h-13.63456v11.4304z m31.31904-11.4304h-13.81376v11.4304h13.81376v-11.4304zM489.09568 386.67776c5.34016-3.71968 9.58464-8.30976 12.736-13.77024l3.19488 1.62048a60.76672 60.76672 0 0 1-4.2752 6.05184v17.57184h-3.50976v-13.63456a53.3248 53.3248 0 0 1-6.38976 5.53472 53.4784 53.4784 0 0 0-1.75616-3.37408z m0.31488 16.24576h19.8912v-5.98528h3.59936v5.98528h19.93472v3.24096h-19.93472v11.47392h-3.59936v-11.47392h-19.8912v-3.24096z m12.73344-14.2208a79.5392 79.5392 0 0 0 10.84416-3.66848v-11.31776h3.50976v9.72032c4.39552-2.176 8.2944-4.72576 11.6992-7.64928l2.38592 2.7008c-4.0192 3.12064-8.71424 5.96992-14.08512 8.5504v3.68896c0 2.0096 1.24416 3.01568 3.73504 3.01568h4.76928c2.28096 0 3.584-0.97536 3.91424-2.92608 0.33024-1.67936 0.54016-3.42016 0.62976-5.21984 1.46944 0.62976 2.63936 1.08032 3.50976 1.34912a71.82336 71.82336 0 0 1-0.85504 5.04064c-0.57088 3.29984-2.71616 4.95104-6.43584 4.95104h-6.79424c-3.99104 0-5.98528-1.86112-5.98528-5.5808v-2.72128c-2.7904 1.216-5.74464 2.36288-8.86528 3.4432a25.9712 25.9712 0 0 0-1.97632-3.37664zM534.90432 413.58848c13.07904-7.55968 19.99616-20.82048 20.74624-39.77984h3.96032a86.4128 86.4128 0 0 1-0.94464 9.18016c3.71968 14.99904 10.71104 24.8704 20.96896 29.60896a67.49184 67.49184 0 0 0-3.33056 3.91424c-8.9088-5.04064-15.26272-13.95712-19.05664-26.752-3.28448 12.35968-9.78688 21.44256-19.5072 27.24864a38.848 38.848 0 0 0-2.83648-3.42016zM585.4848 374.97856h36.0448v16.42496h-3.55584v-1.97888h-10.10176c0.256 2.95424 0.63744 5.65504 1.14688 8.09984h16.02048v3.24096h-15.20896c1.53088 5.25056 3.80928 9.10592 6.84032 11.56608 1.50016 1.2288 2.67008 0.99072 3.50976-0.71936 0.71936-1.46944 1.25952-4.0192 1.62048-7.64928 1.37984 0.59904 2.5344 1.03424 3.46624 1.3056-0.50944 3.38944-1.12384 6.04416-1.84576 7.96416-0.99072 2.54976-2.47552 3.82464-4.4544 3.82464-1.79968 0-3.5712-0.76544-5.30944-2.29376-3.29984-2.82112-5.79072-7.48544-7.47008-13.99552h-17.1904v11.74528a121.79968 121.79968 0 0 0 11.02592-4.096 25.10336 25.10336 0 0 0-0.04608 3.96032c-4.85888 1.6512-8.896 3.12064-12.10624 4.41088-0.36096 0.1792-0.91392 0.46592-1.664 0.85504l-1.97888-3.33056c0.83968-0.59904 1.25952-1.44128 1.25952-2.51904v-36.81536z m32.48896 3.24096h-28.9792v7.96416h28.9792v-7.96416z m-13.70112 11.20512h-15.27808v8.09984h16.47104a85.76512 85.76512 0 0 1-1.19296-8.09984zM642.31936 403.82464l2.7904 2.88a168.91648 168.91648 0 0 1-15.56992 10.08128 41.40544 41.40544 0 0 0-2.38592-3.10528 105.05216 105.05216 0 0 0 15.16544-9.856z m-15.07328-5.71648h11.6096v-12.42112h-9.80992v-3.42016h9.80992v-8.64h3.68896v8.64h13.63456v-8.68608h3.68896v8.68608h9.856v3.42016h-9.856v12.42112h11.65568v3.42016h-44.28032v-3.42016z m15.29856 0h13.63456v-12.42112h-13.63456v12.42112z m10.75456 8.82176l2.29376-2.83392a268.38528 268.38528 0 0 1 14.89408 9.49504l-2.6112 3.28448a184.97792 184.97792 0 0 0-14.57664-9.9456zM672.96512 404.94848a57.38496 57.38496 0 0 0 8.14592-15.11936h-7.87456v-3.0592h8.59392v-7.10912c-2.33984 0.36096-4.7104 0.6912-7.10912 0.99072a39.40864 39.40864 0 0 0-0.99072-3.10528 158.0416 158.0416 0 0 0 18.13504-3.0592l1.03424 3.1488c-2.49088 0.50944-5.04064 0.99072-7.64928 1.44128v7.69536h8.41472v3.0592h-8.41472v5.80608l1.62048-1.62048a128.384 128.384 0 0 1 6.976 6.47936l-2.56512 2.6112a105.19296 105.19296 0 0 0-6.0288-6.34624v20.92544h-3.42016v-21.60128a56.4992 56.4992 0 0 1-7.1552 12.736 91.3664 91.3664 0 0 0-1.71264-3.87328z m22.9504-26.32448h19.8912v37.57568h-3.59936v-4.3648h-12.68992v4.3648h-3.59936V378.624z m16.28928 3.33056h-12.68992v26.63936h12.68992v-26.63936zM721.87904 375.42912h39.37536v41.984h-3.46624v-2.25024h-32.44544v2.29376h-3.46624v-42.02752z m35.91168 3.19488h-32.44544v33.344h32.44544V378.624z m-30.37696 25.51552h12.42112v-8.9088h-10.84416v-3.0592h10.84416v-6.0288h-11.6992v-3.0592h26.82112v3.0592H743.168v6.0288h10.89024v3.0592H743.168v8.9088h12.51072v3.0592h-28.25984v-3.0592z m18.09152-6.03136l2.51904-1.88928a61.2224 61.2224 0 0 1 4.22912 4.81536l-2.65472 2.02496a51.3024 51.3024 0 0 0-4.09344-4.95104z" fill="#7F7D7D" p-id="5230"></path><path d="M457.57952 491.72224v7.5008h27.82464v5.25056h-27.82464v8.69888h20.62592v27.45088h-5.70112v-3.89888h-35.10016v3.89888h-5.70112v-27.45088h20.17536v-8.69888h-25.42592c-0.09984 15.15008-3.35104 27.04896-9.75104 35.6992a67.84512 67.84512 0 0 0-4.50048-5.02528c5.60128-7.9488 8.39936-18.624 8.39936-32.0256v-33.14944h59.10016v24h-5.70112v-3.7504h-47.54944v9.00096h25.42592v-7.5008h5.70368z m16.42496-16.4992h-47.54944v9.75104h47.54944v-9.75104z m-1.50016 43.04896h-35.10016v13.3504h35.10016v-13.3504zM496.80384 469.82144h60.07552v27.37408h-5.92384v-3.29984h-16.83712c0.42496 4.92544 1.0624 9.42592 1.91232 13.49888h26.7008v5.39904h-25.34912c2.54976 8.75008 6.3488 15.17568 11.39968 19.27424 2.50112 2.05056 4.44928 1.6512 5.8496-1.20064 1.20064-2.44992 2.0992-6.69952 2.7008-12.7488 2.29888 1.00096 4.224 1.72544 5.77536 2.176-0.84992 5.64992-1.87392 10.07616-3.07456 13.27616-1.6512 4.2496-4.12416 6.3744-7.424 6.3744-3.00032 0-5.94944-1.27488-8.84992-3.82464-5.49888-4.70016-9.6512-12.47488-12.44928-23.32416H502.656v19.57376c5.74976-1.79968 11.87584-4.07552 18.37568-6.82496a41.7152 41.7152 0 0 0-0.07424 6.59968c-8.09984 2.74944-14.82496 5.19936-20.17536 7.34976-0.59904 0.29952-1.52576 0.77568-2.77504 1.42592l-3.29984-5.55008c1.40032-1.00096 2.0992-2.40128 2.0992-4.20096v-61.34784z m54.15168 5.4016H502.656v13.27616h48.29952v-13.27616z m-22.83776 18.6752h-25.46176v13.49888h27.45088a143.02208 143.02208 0 0 1-1.98912-13.49888zM566.70464 510.54848h10.35008v-35.85024h17.13664a94.4896 94.4896 0 0 0 2.88768-8.25088l6.30016 1.5744c-0.94976 2.1504-1.96352 4.37504-3.03872 6.67392h27.1872v31.87456a140.73088 140.73088 0 0 0 9.44896-7.72608l3.7504 4.12416a175.89504 175.89504 0 0 1-13.19936 10.27584v14.99904c0 7.54944-3.29984 11.35104-9.89952 11.39968a171.776 171.776 0 0 1-12.44928-0.15104 176.48384 176.48384 0 0 0-1.20064-6.22592c3.65056 0.35072 7.57504 0.5248 11.776 0.5248 3.89888 0 5.8496-2.05056 5.8496-6.14912v-10.42432c-15.24992 9.79968-32.47616 17.5488-51.67616 23.24992a41.8048 41.8048 0 0 0-3.37408-5.70112c17.67424-4.54912 33.50016-10.94912 47.4752-19.2h-47.32416v-5.0176z m54.8992-30.82496h-38.62528v7.05024h38.62528v-7.05024z m-38.62272 18.89792h38.62528v-7.05024h-38.62528v7.05024z m0 11.92704h38.62528v-7.12448h-38.62528v7.12448zM642.60608 502.2976c7.15008-9.44896 12.95104-21.17376 17.40032-35.1744l5.8496 2.02496a183.76448 183.76448 0 0 1-7.9488 18.6752v52.42624h-5.70112v-41.99936a132.76672 132.76672 0 0 1-7.20128 10.72384c-0.75008-2.1504-1.5488-4.3776-2.39872-6.67648z m18.14784-4.64896c7.80032-6.85056 14.10048-16.0256 18.90048-27.52512l5.3248 2.02496c-4.64896 11.65056-11.2256 21.52448-19.7248 29.62432-1.79968-1.85088-3.29984-3.2256-4.50048-4.12416z m8.17664 1.0496h37.49888c-0.0512 0.69888-0.42496 9.85088-1.12384 27.45088-0.19968 8.59904-4.12416 12.95104-11.776 13.05088-4.10112 0-7.67488-0.07424-10.72384-0.22528a41.15456 41.15456 0 0 0-1.12384-6.22592c3.45088 0.45056 6.9248 0.72448 10.42432 0.82432 4.8512 0.35072 7.30112-2.35008 7.34976-8.09984 0.39936-6.69952 0.69888-13.8752 0.90112-21.52448h-16.87552c-0.15104 7.9488-1.34912 14.52544-3.59936 19.7248-2.7008 5.94944-7.34976 11.52512-13.94944 16.72448a74.4192 74.4192 0 0 0-4.34944-4.87424c6.3488-4.95104 10.57536-9.69984 12.67456-14.24896 2.05056-4.02432 3.1872-9.79968 3.41248-17.32608h-8.73728v-5.25056z m20.84864-29.55008l4.95104-2.0992c4.95104 12.70016 12.57472 21.97504 22.87616 27.82464-1.89952 2.19904-3.32544 4.02432-4.2752 5.47584-11.15136-7.65184-19.00032-18.05312-23.552-31.20128zM743.104 512.12288c0.19968 1.75104 0.67584 3.92448 1.42592 6.52544-6.04928 6.00064-10.624 10.77504-13.72416 14.32576l-4.2752-4.87424c1.50016-2.0992 2.25024-4.60032 2.25024-7.5008v-23.4752h-9.0752v-5.39904h14.85056v29.25056c2.29888-2.2016 5.14816-5.15328 8.54784-8.85248z m-16.12288-44.2496c5.8496 5.94944 9.95072 10.25024 12.3008 12.89984l-5.25056 4.42624c-3.1488-4.10112-7.02464-8.5504-11.62496-13.3504l4.57472-3.97568z m11.6992 63.07328h10.42432V489.472h5.77536v41.47456h11.92448v-54.82496h-24v-5.55008h50.0992v5.55008h-20.10112v22.57408h17.40032v5.55008h-17.40032v26.7008h21.2992v5.55008h-55.424v-5.55008z" fill="#666565" p-id="5231"></path><path d="M448 668.16c0 7.04-5.76 12.8-12.8 12.8h-158.72c-7.04 0-12.8-5.76-12.8-12.8v-20.48c0-7.04 5.76-12.8 12.8-12.8h158.72c7.04 0 12.8 5.76 12.8 12.8v20.48z" fill="#B2B2B2" p-id="5232"></path><path d="M686.08 668.16a12.8 12.8 0 0 1-12.8 12.8h-184.32a12.8 12.8 0 0 1-12.8-12.8v-20.48a12.8 12.8 0 0 1 12.8-12.8h184.32a12.8 12.8 0 0 1 12.8 12.8v20.48z" fill="#BCBCBC" p-id="5233"></path><path d="M773.12 727.04c0 7.04-5.76 12.8-12.8 12.8H276.48c-7.04 0-12.8-5.76-12.8-12.8v-17.92c0-7.04 5.76-12.8 12.8-12.8h483.84c7.04 0 12.8 5.76 12.8 12.8v17.92z" fill="#BFBFBF" p-id="5234"></path></svg>