<?xml version="1.0" standalone="no"?><!DOCTYPE svg PUBLIC "-//W3C//DTD SVG 1.1//EN" "http://www.w3.org/Graphics/SVG/1.1/DTD/svg11.dtd"><svg t="1556093228787" class="icon" style="" viewBox="0 0 1024 1024" version="1.1" xmlns="http://www.w3.org/2000/svg" p-id="3521" xmlns:xlink="http://www.w3.org/1999/xlink" width="200" height="200"><defs><style type="text/css"></style></defs><path d="M987.904 529.536l-240.256 240.256a24.256 24.256 0 0 1-34.304 0l-34.304-34.304a24.256 24.256 0 0 1 0-34.304l188.8-188.8-188.8-188.8a24.256 24.256 0 0 1 0-34.304l34.304-34.304a24.256 24.256 0 0 1 34.304 0l240.256 240.256a24.256 24.256 0 0 1 0 34.304z m-565.824 384.576l-43.84-12.288c-12.096-3.392-19.52-15.36-16.64-26.752L556.8 124.736c3.136-11.648 16.128-18.304 29.12-14.784l46.912 12.544c12.928 3.456 20.928 15.744 17.792 27.392L449.28 899.648c-2.88 11.392-15.104 17.856-27.2 14.464z m-77.056-178.624l-34.304 34.304a24.256 24.256 0 0 1-34.304 0L36.096 529.536a24.256 24.256 0 0 1 0-34.304l240.256-240.256a24.256 24.256 0 0 1 34.304 0l34.304 34.304a24.256 24.256 0 0 1 0 34.304l-188.8 188.8 188.8 188.8a24.192 24.192 0 0 1 0.064 34.304z" fill="" p-id="3522"></path></svg>