<?xml version="1.0" standalone="no"?><!DOCTYPE svg PUBLIC "-//W3C//DTD SVG 1.1//EN" "http://www.w3.org/Graphics/SVG/1.1/DTD/svg11.dtd"><svg t="1555472988719" class="icon" style="" viewBox="0 0 1024 1024" version="1.1" xmlns="http://www.w3.org/2000/svg" p-id="7655" xmlns:xlink="http://www.w3.org/1999/xlink" width="200" height="200"><defs><style type="text/css"></style></defs><path d="M183.296 219.648h147.456v109.056h-147.456v-109.056z m219.648 0h147.456v109.056h-147.456v-109.056z m-219.648 183.808h147.456V512h-147.456v-108.544z m219.648 0h147.456V512h-147.456v-108.544z m365.056 0h72.704V512H768v-108.544z m0 181.248h72.704v109.056H768v-109.056z m-584.704 0h147.456v109.056h-147.456v-109.056z m219.648 0h147.456v109.056h-147.456v-109.056z m584.704 330.752V256h-292.352v-219.648h-658.944v877.056h-36.352v72.704h1024v-72.704h-36.352v2.048z m-879.104 0V109.056h512v804.352h-512v2.048z m586.752 0V328.704h219.648v584.704h-219.648v2.048z" fill="" p-id="7656"></path></svg>