<?xml version="1.0" standalone="no"?><!DOCTYPE svg PUBLIC "-//W3C//DTD SVG 1.1//EN" "http://www.w3.org/Graphics/SVG/1.1/DTD/svg11.dtd"><svg t="1555397537050" class="icon" style="" viewBox="0 0 1024 1024" version="1.1" xmlns="http://www.w3.org/2000/svg" p-id="8991" xmlns:xlink="http://www.w3.org/1999/xlink" width="200" height="200"><defs><style type="text/css"></style></defs><path d="M66 183.8h893.4v655.1H66z" fill="#F2F8FF" p-id="8992"></path><path d="M192.5 377.3h74.4v29.8h-74.4z" fill="#93ADF0" p-id="8993"></path><path d="M304.2 377.3h148.9v29.8H304.2z" fill="#CBE3FE" p-id="8994"></path><path d="M192.5 466.7h74.4v29.8h-74.4z" fill="#93ADF0" p-id="8995"></path><path d="M304.2 466.7h208.5v29.8H304.2z" fill="#CBE3FE" p-id="8996"></path><path d="M192.5 556h74.4v29.8h-74.4zM192.5 645.3h632.8v29.8H192.5z" fill="#93ADF0" p-id="8997"></path><path d="M304.2 556h208.5v29.8H304.2z" fill="#CBE3FE" p-id="8998"></path><path d="M654.1 526.2h37.2v37.2h-37.2z" fill="#FDCC9B" p-id="8999"></path><path d="M650.9 527.6s15 9.7 35.6 7.4v-12.1h-35.6v4.7zM616.8 460.1c0 11-7.7 20.1-17.4 20.1-9.6 0-17.3-8.9-17.3-20.1 0-11 7.7-20.1 17.4-20.1 9.6 0.2 17.3 9.1 17.3 20.1zM755.5 460.1c0 11-7.7 20.1-17.4 20.1s-17.4-9.1-17.4-20.1S728.3 440 738 440c9.7 0 17.5 9.1 17.5 20.1z" fill="#FCBC85" p-id="9000"></path><path d="M738 421.8c0-29.6-21.4-51.3-69.2-51.3s-69.2 21.6-69.2 51.3c0 29.6-5 107.6 69.2 107.6 74.2-0.1 69.2-78 69.2-107.6" fill="#FDCC9B" p-id="9001"></path><path d="M642.6 455.4c0 4.6-3.3 8.3-7.4 8.3-4.1 0-7.4-3.7-7.4-8.3 0-4.6 3.3-8.3 7.4-8.3 3.9 0 7.4 3.7 7.4 8.3" fill="#3B2519" p-id="9002"></path><path d="M633.9 451.7c0 1.2-1.1 2.3-2.3 2.3-1.2 0-2.3-1.1-2.3-2.3 0-1.2 1.1-2.3 2.3-2.3 1.4 0 2.3 1.1 2.3 2.3" fill="#FFFFFF" p-id="9003"></path><path d="M623 434.8c3.5 1.8 9.3-6.1 22.3 0.8 2.4 1.2 3.8-10.7-10.2-10.7-12.1-0.1-14.2 8.8-12.1 9.9M710.9 455.4c0 4.6-3.3 8.3-7.4 8.3-4.1 0-7.4-3.7-7.4-8.3 0-4.6 3.3-8.3 7.4-8.3 4 0 7.4 3.7 7.4 8.3" fill="#3B2519" p-id="9004"></path><path d="M702.4 451.7c0 1.2-1.1 2.3-2.3 2.3-1.2 0-2.3-1.1-2.3-2.3 0-1.2 1.1-2.3 2.3-2.3 1.2 0 2.3 1.1 2.3 2.3" fill="#FFFFFF" p-id="9005"></path><path d="M714.5 434.8c-3.5 1.8-9.3-6.1-22.3 0.8-2.4 1.2-3.8-10.7 10.2-10.7 12.1-0.1 14.2 8.8 12.1 9.9" fill="#51362A" p-id="9006"></path><path d="M668.7 484.5c-7.4 0-11.8-5.5-11.8-2.9 0 2.8 2.1 7.8 11.8 7.8 9.7 0 11.8-5.2 11.8-7.8 0.2-2.6-4.4 2.9-11.8 2.9m0 25c-2.6 0-4.1-2-4.1-1.1 0 0.9 0.8 2.8 4.1 2.8s4.1-1.8 4.1-2.8c0-0.9-1.5 1.1-4.1 1.1" fill="#FCBC85" p-id="9007"></path><path d="M668.7 502.6c-11.7 0-18.8-4.8-18.8-3.7 0 1.2 3.3 6 18.8 6s18.8-4.8 18.8-6c0-1.2-7 3.7-18.8 3.7" fill="#F36C21" p-id="9008"></path><path d="M725.6 364.2s-25.6-33-79-20.6c-53.4 12.4-57.3 45-55.7 76.6 1.5 31.6 5.8 50.2 10.9 47.9 5-2.3 2.4-23.2 3-27.9 0.6-4.8 5.3-26.5 37.8-23.3 32.5 3.2 59.8-8.7 59.8-8.7s11.1 14.1 18.2 16.7c14.4 5.4 9.7 41.3 15.5 41.3 5.6 0.1 33.5-83-10.5-102" fill="#51362A" p-id="9009"></path><path d="M572.2 578.3h193.6v37.2H572.2z" fill="#312B28" p-id="9010"></path><path d="M650.9 543.8s5.2 6.6 17.9 6.6c12.6 0 17.9-6.6 17.9-6.6s-15.9-5.8-31.8-1.3c-1.3 0.3-2.7 0.8-4 1.3" fill="#FCBC85" p-id="9011"></path><path d="M669 549.9l9.3 11.9-4.6 7.4 2.7 37.3-6.8 6-8.1-6.2 2.7-37.1-4.7-7.6z" fill="#EF6565" p-id="9012"></path><path d="M741.1 551.3c-16.3-8.1-36.1-7.4-36.1-7.4l-35.4 68.6c36.1 0 69.2-11.9 95.9-32.3-1.9-6.7-8.5-21-24.4-28.9m-71.5 61.2l-37.9-68.6s-20.7-0.9-35.9 8c-12.6 7.4-21 23.1-23.6 28.3 26.7 20.4 61.3 32.3 97.4 32.3" fill="#312B28" p-id="9013"></path><path d="M700 533.1l-31 16.8 16.1 20.5 28-25.3-13.1-12z m-62 0l31 16.8-16.1 19.9-28-24.7 13.1-12z" fill="#FFFFFF" p-id="9014"></path></svg>