<?xml version="1.0" standalone="no"?><!DOCTYPE svg PUBLIC "-//W3C//DTD SVG 1.1//EN" "http://www.w3.org/Graphics/SVG/1.1/DTD/svg11.dtd"><svg t="1555575146995" class="icon" style="" viewBox="0 0 1024 1024" version="1.1" xmlns="http://www.w3.org/2000/svg" p-id="5352" xmlns:xlink="http://www.w3.org/1999/xlink" width="200" height="200"><defs><style type="text/css"></style></defs><path d="M934.1610666666666 0.4010666666666607h-742.7413333333334C154.28266666666667 0.4010666666666607 124.24533333333335 30.438399999999984 124.24533333333335 67.57546666666666v202.61546666666666H39.59466666666668c-4.369066666666667 0-8.738133333333334 1.6384-12.014933333333332 4.9152-3.2768 3.2768-4.9152 7.645866666666667-4.9152 12.014933333333332V320.98133333333334c0 4.369066666666667 1.6384 8.738133333333334 4.9152 12.014933333333332s7.645866666666667 4.9152 12.014933333333332 4.9152H124.24533333333335v135.44106666666667H39.59466666666668c-4.369066666666667 0-8.738133333333334 1.6384-12.014933333333332 4.9152s-4.9152 7.645866666666667-4.9152 12.014933333333332v33.86026666666667c0 4.369066666666667 1.6384 8.738133333333334 4.9152 12.014933333333332s7.645866666666667 4.9152 12.014933333333332 4.9152H124.24533333333335V675.968H39.59466666666668c-4.369066666666667 0-8.738133333333334 1.6384-12.014933333333332 4.9152-3.2768 3.2768-4.9152 7.645866666666667-4.9152 12.014933333333332v33.86026666666667c0 9.284266666666667 7.645866666666667 16.930133333333334 16.930133333333334 16.930133333333334H124.24533333333335v202.61546666666666c0 37.13706666666667 30.037333333333333 67.17439999999999 67.72053333333334 67.17439999999999h742.1952c37.13706666666667 0 67.17439999999999-30.037333333333333 67.17439999999999-67.17439999999999V67.57546666666666c0-37.13706666666667-30.037333333333333-67.17439999999999-67.17439999999999-67.17439999999999z m-202.61546666666666 944.8106666666666H191.41973333333334v-202.61546666666666h84.65066666666667c9.284266666666667 0 16.930133333333334-7.645866666666667 16.930133333333334-16.930133333333334v-33.86026666666667c0-4.369066666666667-1.6384-8.738133333333334-4.9152-12.014933333333332-3.2768-3.2768-7.645866666666667-4.9152-12.014933333333332-4.9152H191.41973333333334v-134.89493333333334h84.10453333333334c4.369066666666667 0 8.738133333333334-1.6384 12.014933333333332-4.9152 3.2768-3.2768 4.9152-7.645866666666667 4.9152-12.014933333333332v-33.86026666666667c0-4.369066666666667-1.6384-8.738133333333334-4.9152-12.014933333333332s-7.645866666666667-4.9152-12.014933333333332-4.9152H191.41973333333334V337.9114666666666h84.65066666666667c4.369066666666667 0 8.738133333333334-1.6384 12.014933333333332-4.9152s4.9152-7.645866666666667 4.9152-12.014933333333332v-33.86026666666667c0-4.369066666666667-1.6384-8.738133333333334-4.9152-12.014933333333332s-7.645866666666667-4.9152-12.014933333333332-4.9152H191.41973333333334V67.57546666666666h540.1258666666666v877.6362666666666z" p-id="5353"></path><path d="M538.7605333333333 340.64213333333333l61.16693333333333-61.16693333333333c6.007466666666666-6.5536 6.007466666666666-16.930133333333334 0-23.48373333333333l-24.576-24.576c-6.5536-6.5536-16.930133333333334-6.5536-23.48373333333333 0L491.24693333333335 293.12853333333334 430.08 231.9616c-6.5536-6.5536-16.930133333333334-6.5536-23.48373333333333 0l-24.576 24.576c-6.5536 6.5536-6.5536 16.930133333333334 0 23.48373333333333l61.16693333333333 61.16693333333333-61.16693333333333 60.6208c-6.5536 6.5536-6.5536 16.930133333333334 0 23.48373333333333l24.576 24.576c6.5536 6.5536 16.930133333333334 6.5536 23.48373333333333 0l61.16693333333333-61.16693333333333 61.16693333333333 61.16693333333333c6.5536 6.007466666666666 16.930133333333334 6.007466666666666 23.48373333333333 0l24.576-24.576c6.5536-6.5536 6.5536-16.930133333333334 0-23.48373333333333l-61.71306666666667-61.16693333333333zM660.0021333333333 579.3023999999999l-24.576-24.576c-6.5536-6.5536-16.930133333333334-6.5536-22.9376 0l-127.24906666666668 127.24906666666668c-3.8229333333333333 3.8229333333333333-9.8304 3.8229333333333333-13.653333333333334 0l-40.413866666666664-40.413866666666664c-5.461333333333333-5.461333333333333-14.199466666666666-5.461333333333333-19.6608 0l-27.8528 27.8528c-5.461333333333333 5.461333333333333-5.461333333333333 14.199466666666666 0 19.6608l83.55839999999999 83.55839999999999c6.5536 6.5536 16.384 6.5536 22.9376 0l36.59093333333333-36.59093333333333 133.80266666666665-133.80266666666665c5.461333333333333-6.007466666666666 5.461333333333333-16.384-0.5461333333333334-22.9376z" p-id="5354"></path></svg>