<?xml version="1.0" standalone="no"?><!DOCTYPE svg PUBLIC "-//W3C//DTD SVG 1.1//EN" "http://www.w3.org/Graphics/SVG/1.1/DTD/svg11.dtd"><svg t="1555484531848" class="icon" style="" viewBox="0 0 1025 1024" version="1.1" xmlns="http://www.w3.org/2000/svg" p-id="10242" xmlns:xlink="http://www.w3.org/1999/xlink" width="200.1953125" height="200"><defs><style type="text/css"></style></defs><path d="M945.519192 161.486869H78.99798C35.426263 161.486869 0 196.913131 0 240.484848v603.022223c0 43.571717 35.426263 78.99798 78.99798 78.99798l810.149495-1.163637c25.858586 0 28.961616-8.145455 28.832323-21.721212-0.129293-15.515152-14.351515-21.20404-31.547475-20.686869-8.921212 0.258586-807.951515 0-807.951515 0-14.610101 0-36.848485-21.333333-36.848485-35.814141V239.450505c0-14.610101 23.531313-35.167677 38.141414-35.167677h867.426263c14.610101 0 35.167677 21.462626 35.167677 35.943435v531.135353c0 14.610101 7.111111 25.212121 21.721212 25.212121s20.428283-10.343434 20.428283-25.082828V240.355556c-0.129293-43.571717-35.684848-78.868687-78.99798-78.868687z" fill="" p-id="10243"></path><path d="M229.365657 745.890909h-134.464647V325.30101h37.365657v387.620202h96.969697v32.969697h0.129293z m228.589899-29.737374c0 8.791919-2.844444 15.90303-8.404041 21.462627-5.688889 5.559596-12.8 8.274747-21.591919 8.274747h-117.656566c-8.791919 0-15.90303-2.715152-21.462626-8.274747-5.559596-5.559596-8.274747-12.670707-8.274747-21.462627V355.038384c0-8.791919 2.715152-15.90303 8.274747-21.462626 5.559596-5.559596 12.670707-8.274747 21.462626-8.274748h117.656566c8.791919 0 16.032323 2.715152 21.591919 8.274748 5.688889 5.559596 8.40404 12.670707 8.404041 21.462626v361.115151z m-37.236364-3.232323V358.270707H317.80202v354.521212h102.917172v0.129293z m274.618182 3.232323c0 8.791919-2.715152 15.90303-8.274748 21.462627-5.559596 5.559596-12.670707 8.274747-21.462626 8.274747h-110.416162c-8.791919 0-15.90303-2.715152-21.462626-8.274747-5.559596-5.559596-8.274747-12.670707-8.274747-21.462627V355.038384c0-8.791919 2.715152-15.90303 8.274747-21.462626 5.559596-5.559596 12.670707-8.274747 21.462626-8.274748H665.6c8.791919 0 15.90303 2.715152 21.462626 8.274748 5.559596 5.559596 8.274747 12.670707 8.274748 21.462626v97.874747h-37.624243v-94.642424h-95.159596v354.521212h95.159596V567.59596h-44.864646v-32.323233H695.337374v180.880808z m244.363636 0c0 8.791919-2.844444 15.90303-8.40404 21.462627-5.688889 5.559596-12.8 8.274747-21.591919 8.274747h-117.656566c-8.791919 0-15.90303-2.715152-21.462626-8.274747-5.559596-5.559596-8.274747-12.670707-8.274748-21.462627V355.038384c0-8.791919 2.715152-15.90303 8.274748-21.462626 5.559596-5.559596 12.670707-8.274747 21.462626-8.274748h117.656566c8.791919 0 16.032323 2.715152 21.591919 8.274748 5.688889 5.559596 8.40404 12.670707 8.40404 21.462626v361.115151z m-37.494949-3.232323V358.270707h-102.917172v354.521212H902.206061v0.129293z" fill="" p-id="10244"></path></svg>