<?xml version="1.0" standalone="no"?><!DOCTYPE svg PUBLIC "-//W3C//DTD SVG 1.1//EN" "http://www.w3.org/Graphics/SVG/1.1/DTD/svg11.dtd"><svg t="1555399906017" class="icon" style="" viewBox="0 0 1024 1024" version="1.1" xmlns="http://www.w3.org/2000/svg" p-id="13166" xmlns:xlink="http://www.w3.org/1999/xlink" width="200" height="200"><defs><style type="text/css"></style></defs><path d="M955.607 0H68.293C30.497 0 0 30.597 0 68.293v887.414C0 993.403 30.497 1024 68.293 1024h887.414c37.696 0 68.293-30.497 68.293-68.293V68.293C1023.9 30.597 993.303 0 955.607 0z" fill="#CECECE" p-id="13167"></path><path d="M634.138 139.322c-2.9-8.899-15.398-9.299-18.798-0.5l-64.394 163.884c-36.996-7.199-76.393-6.399-115.089 4.3-39.796 10.999-74.393 31.197-102.69 57.294L170.983 254.011c-6.899-4.7-15.898 1.9-13.599 9.799l217.379 744.927h527.948L634.137 139.322z" fill="#FFFFFF" p-id="13168"></path><path d="M707.53 682.833c-0.899-0.8-1.699-1.7-2.599-2.5-6.4-6.499-16.998-4.499-20.898 3.8-27.097 58.195-90.59 99.29-164.784 99.29-32.696 0-63.193-7.999-89.49-21.797-8.2-4.3-18.2-1.3-23.099 6.599-0.1 0.1-0.1 0.2-0.2 0.3-4.9 8-1.9 18.298 6.2 22.598 31.297 16.798 67.693 26.397 106.49 26.397 84.291 0 157.084-45.295 191.48-110.689 4.4-8.1 3.3-17.798-3.1-23.998z m-256.674-51.795c16.598 0 30.097-13.498 30.097-30.097s-13.499-30.097-30.097-30.097-30.097 13.499-30.097 30.097 13.399 30.097 30.097 30.097z m120.188-30.097c16.599 0 30.097-13.498 30.097-30.097s-13.498-30.097-30.097-30.097-30.097 13.499-30.097 30.097 13.499 30.097 30.097 30.097z" fill="#C3C3C3" p-id="13169"></path></svg>