<?xml version="1.0" standalone="no"?><!DOCTYPE svg PUBLIC "-//W3C//DTD SVG 1.1//EN" "http://www.w3.org/Graphics/SVG/1.1/DTD/svg11.dtd"><svg t="1555296863620" class="icon" style="" viewBox="0 0 1024 1024" version="1.1" xmlns="http://www.w3.org/2000/svg" p-id="5564" xmlns:xlink="http://www.w3.org/1999/xlink" width="200" height="200"><defs><style type="text/css"></style></defs><path d="M823.843628 576.450352c69.654418-52.841282 111.286943-135.305708 111.286943-223.374511 0-153.720094-124.897576-278.61767-278.61767-278.617671-26.420641 0-48.037529 21.616888-48.03753 48.03753 0 27.221267 20.816263 48.037529 48.03753 48.037529 100.878812 0 182.542611 81.6638 182.542611 182.542612S757.391712 535.618452 656.512901 535.618452c-26.420641 0-48.037529 21.616888-48.03753 48.037529 0 27.221267 20.816263 48.037529 48.03753 48.03753 148.916341 0 269.81079 120.894449 269.810789 269.810789 0 26.420641 21.616888 48.037529 48.03753 48.03753s48.037529-21.616888 48.037529-48.03753c0.800625-137.707584-76.860047-263.405786-198.555121-325.053948z" p-id="5565"></path><path d="M531.615324 576.450352c69.654418-52.841282 111.286943-135.305708 111.286943-223.374511 0-153.720094-124.897576-278.61767-278.61767-278.617671S85.666927 199.355747 85.666927 353.075841c0 88.068804 41.632525 170.533229 111.286943 223.374511C77.660672 638.89914 1.601251 764.597342 1.601251 901.5043c0 26.420641 21.616888 48.037529 48.037529 48.03753 27.221267 0 48.037529-20.816263 48.03753-48.03753 0-148.916341 120.894449-269.81079 269.810789-269.810789S637.297889 752.587959 637.297889 901.5043c0 26.420641 21.616888 48.037529 48.037529 48.03753s48.037529-21.616888 48.03753-48.03753C730.170446 762.996091 651.709148 638.098514 531.615324 576.450352z m16.813136-223.374511c0 101.679437-81.6638 184.143862-182.542612 184.143862s-182.542611-82.464425-182.542611-184.143862c0-100.878812 81.6638-182.542611 182.542611-182.542612 99.277561 0 182.542611 83.265051 182.542612 182.542612z" p-id="5566"></path></svg>